<?xml version="1.0" encoding="UTF-8"?>
<svg width="300" height="300" version="1.1" viewBox="0 0 300 300" xml:space="preserve" xmlns="http://www.w3.org/2000/svg">
  <path d="m300 300h-300v-300h300z" clip-rule="evenodd" fill="#e20613" fill-rule="evenodd" stroke-width="1.0575"/>
  <path d="m212.78 222.74h29.079v-149.78h-25.268c-1.4616 10.069-6.2685 17.091-15.708 22.185-5.5107 2.9843-15.241 5.6177-25.202 5.6177v18.379h36.868zm-154.39-149.66-0.23389 104.83c0 15.453 3.81 24.23 10.726 32.309 8.2656 9.4802 22.216 17.263 47.129 17.263 38.395 0 57.034-20.248 57.034-50.337l-0.11854-104.06h-29.308v99.501c0 12.233-1.7579 16.152-4.572 20.365-4.1614 6.3237-11.663 11.005-23.094 11.005-18.465 0-28.487-10.828-28.487-28.972l0.23389-102.02z" clip-rule="evenodd" fill="#fff" fill-rule="evenodd" stroke-width="1.0575"/>
</svg>
