<svg xmlns="http://www.w3.org/2000/svg" xml:space="preserve" width="283.46" height="283.46">
  <path fill="#e20613" fill-rule="evenodd" d="M283.229 283.88399095H-.236V-.00236078h283.465z" clip-rule="evenodd"/>
  <path fill="#FFF" fill-rule="evenodd" d="M200.812 210.772h27.476V69.04h-23.875c-1.381 9.528-5.923 16.173-14.842 20.993-5.207 2.824-14.401 5.316-23.813 5.316v17.392h34.836l.218 98.031zM54.928 69.152l-.221 99.196c0 14.623 3.6 22.929 10.135 30.574 7.81 8.971 20.992 16.336 44.531 16.336 36.279 0 53.89-19.16 53.89-47.633l-.112-98.473h-27.693v94.157c0 11.576-1.661 15.284-4.32 19.271-3.932 5.984-11.02 10.414-21.821 10.414-17.447 0-26.917-10.246-26.917-27.416l.221-96.538-27.693.112z" clip-rule="evenodd"/>
</svg>
