<svg xmlns="http://www.w3.org/2000/svg" xml:space="preserve" width="136.2375" height="136.2375">
  <path d="M0 1089.92h1089.92V0H0v1089.92" style="fill:#9e51ae;fill-opacity:1;fill-rule:evenodd;stroke:none" transform="matrix(.125 0 0 -.125 0 136.2375)"/>
  <path d="M951.074 659.945c0-42.488-10.019-77.75-29.883-105.679-19.902-27.93-57.285-59.27-112.07-94.141-50.683-31.992-85.176-60.969-103.75-86.797l-.391-.793h246.094v-96.758H567.637c0 51.274 13.047 95.188 38.984 131.77 25.938 36.582 74.785 79.98 146.543 130.195 32.129 22.293 54.785 42.742 67.949 61.367 13.028 18.481 19.61 39.2 19.61 62.012 0 24.785-7.227 44.844-21.582 59.922-14.356 15.078-33.457 22.687-57.012 22.687-25.293 0-44.902-9.445-59.121-28.457-14.102-18.878-20.684-44.707-19.629-77.226H575.02c-1.836 60.707 14.218 108.824 48.066 144.488 33.691 35.535 80.312 53.363 139.824 53.363 55.176 0 100.469-16.386 135.762-49.168 34.883-32.777 52.402-74.996 52.402-126.785M136.684 822.898l-.856-381.406c0-56.219 13.629-88.176 38.973-117.558 30.027-34.5 80.711-62.825 171.219-62.825 139.699 0 207.203 73.684 207.203 183.149v.008l-.41 378.632H446.316V460.867c0-44.504-6.382-58.777-16.605-74.109-15.117-23-42.383-40.039-83.906-40.039-67.078 0-103.496 39.402-103.496 105.418l.855 371.187-106.48-.426" style="fill:#fff;fill-opacity:1;fill-rule:evenodd;stroke:none" transform="matrix(.125 0 0 -.125 0 136.2375)"/>
</svg>
