<?xml version="1.0" encoding="UTF-8"?>
<svg width="300" height="300" version="1.1" viewBox="0 0 300 300" xml:space="preserve" xmlns="http://www.w3.org/2000/svg">
  <path d="m0 0h300v300h-300v-300" fill="#9e51ae" fill-rule="evenodd"/>
  <path d="m261.78 118.35c0 11.695-2.7577 21.401-8.2253 29.088-5.478 7.6877-15.768 16.314-30.847 25.912-13.95 8.8058-23.445 16.782-28.557 23.891l-0.10761 0.21829h67.737v26.633h-105.54c0-14.113 3.5912-26.2 10.73-36.27 7.1394-10.069 20.585-22.014 40.336-35.836 8.8435-6.1361 15.08-11.765 18.703-16.891 3.586-5.0869 5.3976-10.79 5.3976-17.069 0-6.8221-1.9892-12.343-5.9404-16.494-3.9515-4.1502-9.209-6.2446-15.693-6.2446-6.9619 0-12.359 2.5997-16.273 7.8328-3.8816 5.1962-5.6933 12.306-5.4029 21.256h-29.826c-0.50536-16.71 3.9135-29.954 13.23-39.77 9.2734-9.781 22.106-14.688 38.486-14.688 15.187 0 27.654 4.5102 37.368 13.533 9.6015 9.0219 14.424 20.643 14.424 34.898m-224.16-44.853-0.23561 104.98c0 15.474 3.7514 24.27 10.727 32.358 8.2649 9.4961 22.216 17.293 47.128 17.293 38.452 0 57.033-20.282 57.033-50.412v-2e-3l-0.11286-104.22h-29.313v99.649c0 12.25-1.7566 16.178-4.5705 20.398-4.1609 6.3307-11.666 11.021-23.095 11.021-18.463 0-28.487-10.845-28.487-29.016l0.23534-102.17-29.309 0.11726" fill="#fff" fill-rule="evenodd"/>
</svg>
