<?xml version="1.0" encoding="UTF-8" standalone="no"?>
<svg
   xml:space="preserve"
   width="300"
   height="300"
   version="1.1"
   id="svg23"
   sodipodi:docname="u3.svg"
   viewBox="0 0 300 300"
   inkscape:version="1.2.2 (b0a8486541, 2022-12-01)"
   xmlns:inkscape="http://www.inkscape.org/namespaces/inkscape"
   xmlns:sodipodi="http://sodipodi.sourceforge.net/DTD/sodipodi-0.dtd"
   xmlns="http://www.w3.org/2000/svg"
   xmlns:svg="http://www.w3.org/2000/svg"><defs
   id="defs27" /><sodipodi:namedview
   id="namedview25"
   pagecolor="#ffffff"
   bordercolor="#666666"
   borderopacity="1.0"
   inkscape:showpageshadow="2"
   inkscape:pageopacity="0.0"
   inkscape:pagecheckerboard="0"
   inkscape:deskcolor="#d1d1d1"
   showgrid="false"
   inkscape:zoom="1.7163636"
   inkscape:cx="69.041315"
   inkscape:cy="70.789196"
   inkscape:window-width="845"
   inkscape:window-height="1367"
   inkscape:window-x="1707"
   inkscape:window-y="37"
   inkscape:window-maximized="1"
   inkscape:current-layer="svg23" />
  <path
   d="M 0,300 H 300 V 0 H 0 Z"
   style="fill:#f47216;fill-opacity:1;fill-rule:evenodd;stroke:none;stroke-width:0.275248"
   id="path17"
   inkscape:label="bg" />
  <path
   d="m 38.082712,75.28809 -0.231525,104.02627 c 0,15.33528 3.721054,24.04725 10.639501,32.06209 8.198114,9.41075 22.0361,17.13511 46.747023,17.13511 38.141279,0 56.572639,-20.09683 56.572639,-49.95052 v -0.002 L 151.69404,75.28809 h -29.07167 v 98.74187 c 0,12.13708 -1.74381,16.03104 -4.53495,20.21274 -4.12731,6.2731 -11.57051,10.91929 -22.907317,10.91929 -18.315046,0 -28.258061,-10.74555 -28.258061,-28.75098 L 67.154386,75.173265 38.082712,75.288079"
   style="fill:#ffffff;fill-opacity:1;fill-rule:evenodd;stroke:none;stroke-width:0.272884"
   id="path19"
   inkscape:label="u" />
  <path
   d="m 229.95194,118.14727 c 0,-5.90871 -1.71077,-10.71472 -5.13205,-14.34576 -3.38497,-3.66703 -7.91143,-5.482415 -13.57779,-5.482415 -6.52038,0 -11.6172,2.064665 -15.18045,6.194275 -3.59956,4.16452 -5.45203,10.03914 -5.59373,17.69205 H 162.92 c 0.21433,-15.48446 4.66818,-27.446991 13.43473,-35.812579 8.7316,-8.365588 21.02509,-12.566383 36.884,-12.566383 13.64795,0 24.83786,3.951507 33.53289,11.889979 8.69529,7.93929 13.04239,18.120263 13.04239,30.543993 0,10.78728 -4.52511,19.61517 -13.57671,26.52213 l -4.09836,2.70506 c 3.49279,1.31681 6.55668,3.0621 9.19409,5.19822 8.73053,6.76322 13.07872,16.90901 13.07872,30.47254 0,14.95207 -4.7045,26.80578 -14.14733,35.5633 -9.44393,8.75751 -22.16605,13.1364 -38.16693,13.1364 -16.49861,0 -29.29255,-4.34371 -38.37909,-12.99349 -9.08654,-8.65115 -13.71949,-20.96824 -13.93382,-36.95265 h 29.11454 c 0.1428,8.54451 2.0668,15.05844 5.80806,19.54371 3.70713,4.48663 9.08763,6.72913 16.14368,6.72913 6.8065,0 12.32979,-2.2425 16.4997,-6.76431 4.16909,-4.52155 6.27219,-10.46544 6.27219,-17.83579 0,-6.47875 -2.1031,-11.71188 -6.27219,-15.66366 -3.70604,-3.41666 -8.37504,-5.3035 -14.00508,-5.73061 -3.13569,-0.21329 -6.05896,-0.31966 -8.73051,-0.35593 -2.67373,-0.0352 -4.38341,0.0363 -5.16836,0.24928 v -22.10722 c 0.82017,0.10666 2.60138,0.14292 5.34637,0.0363 2.70786,-0.10746 5.5951,-0.32184 8.65898,-0.67641 4.73972,-0.57003 8.48205,-2.20758 11.26118,-4.91265 3.4928,-3.34766 5.2388,-8.08221 5.2388,-14.27649"
   style="fill:#ffffff;fill-opacity:1;fill-rule:nonzero;stroke:none;stroke-width:0.272884"
   id="path21"
   inkscape:label="3" />
</svg>
