<?xml version="1.0" encoding="UTF-8"?>
<svg width="300" height="300" version="1.1" viewBox="0 0 300 300" xml:space="preserve" xmlns="http://www.w3.org/2000/svg">
  <path d="m0 300h300v-300h-300z" fill="#f47216" fill-rule="evenodd"/>
  <path d="m38.083 75.288-0.23152 104.03c0 15.335 3.7211 24.047 10.64 32.062 8.1981 9.4108 22.036 17.135 46.747 17.135 38.141 0 56.573-20.097 56.573-49.951v-2e-3l-0.11631-103.27h-29.072v98.742c0 12.137-1.7438 16.031-4.535 20.213-4.1273 6.2731-11.571 10.919-22.907 10.919-18.315 0-28.258-10.746-28.258-28.751l0.23234-101.24-29.072 0.11481" fill="#fff" fill-rule="evenodd"/>
  <path d="m229.95 118.15c0-5.9087-1.7108-10.715-5.132-14.346-3.385-3.667-7.9114-5.4824-13.578-5.4824-6.5204 0-11.617 2.0647-15.18 6.1943-3.5996 4.1645-5.452 10.039-5.5937 17.692h-27.548c0.21433-15.484 4.6682-27.447 13.435-35.813 8.7316-8.3656 21.025-12.566 36.884-12.566 13.648 0 24.838 3.9515 33.533 11.89 8.6953 7.9393 13.042 18.12 13.042 30.544 0 10.787-4.5251 19.615-13.577 26.522l-4.0984 2.7051c3.4928 1.3168 6.5567 3.0621 9.1941 5.1982 8.7305 6.7632 13.079 16.909 13.079 30.473 0 14.952-4.7045 26.806-14.147 35.563-9.4439 8.7575-22.166 13.136-38.167 13.136-16.499 0-29.293-4.3437-38.379-12.993-9.0865-8.6512-13.719-20.968-13.934-36.953h29.115c0.1428 8.5445 2.0668 15.058 5.8081 19.544 3.7071 4.4866 9.0876 6.7291 16.144 6.7291 6.8065 0 12.33-2.2425 16.5-6.7643 4.1691-4.5216 6.2722-10.465 6.2722-17.836 0-6.4788-2.1031-11.712-6.2722-15.664-3.706-3.4167-8.375-5.3035-14.005-5.7306-3.1357-0.21329-6.059-0.31966-8.7305-0.35593-2.6737-0.0352-4.3834 0.0363-5.1684 0.24928v-22.107c0.82017 0.10666 2.6014 0.14292 5.3464 0.0363 2.7079-0.10746 5.5951-0.32184 8.659-0.67641 4.7397-0.57003 8.482-2.2076 11.261-4.9126 3.4928-3.3477 5.2388-8.0822 5.2388-14.276" fill="#fff"/>
</svg>
