<svg xmlns="http://www.w3.org/2000/svg" xml:space="preserve" width="137.5" height="137.5">
  <path d="M.14306625 137.49459H137.49326V.00275931H.14306625Z" style="fill:#f47216;fill-opacity:1;fill-rule:evenodd;stroke:none;stroke-width:.126083"/>
  <path d="m140.629 823.938-.848-381.407c0-56.226 13.629-88.168 38.969-117.554 30.027-34.504 80.711-62.825 171.219-62.825 139.699 0 207.207 73.684 207.207 183.141v.008l-.426 378.637H450.27V461.906c0-44.5-6.387-58.777-16.61-74.109-15.117-23-42.379-40.035-83.902-40.035-67.082 0-103.5 39.398-103.5 105.414l.851 371.183-106.48-.421" style="fill:#fff;fill-opacity:1;fill-rule:evenodd;stroke:none" transform="matrix(.125 0 0 -.125 0 137.5)"/>
  <path d="M843.383 666.797c0 21.664-6.266 39.285-18.797 52.598-12.398 13.445-28.977 20.101-49.731 20.101-23.882 0-42.55-7.57-55.601-22.711-13.184-15.269-19.969-36.808-20.488-64.867H597.867c.785 56.773 17.098 100.633 49.207 131.305 31.981 30.672 77.008 46.074 135.094 46.074 49.988 0 90.973-14.488 122.82-43.594 31.848-29.109 47.77-66.437 47.77-111.988 0-39.551-16.574-71.918-49.727-97.242l-15.011-9.918c12.793-4.828 24.015-11.227 33.675-19.059 31.977-24.797 47.903-61.996 47.903-111.726 0-54.821-17.231-98.282-51.817-130.391-34.59-32.109-81.187-48.164-139.793-48.164-60.429 0-107.289 15.926-140.57 47.64-33.281 31.719-50.25 76.879-51.035 135.485H693.02c.523-31.328 7.57-55.211 21.273-71.656 13.578-16.45 33.285-24.672 59.129-24.672 24.93 0 45.16 8.222 60.433 24.801 15.27 16.578 22.973 38.371 22.973 65.394 0 23.754-7.703 42.941-22.973 57.43-13.574 12.527-30.675 19.445-51.296 21.011-11.485.782-22.192 1.172-31.977 1.305-9.793.129-16.055-.133-18.93-.914v81.055c3.004-.391 9.528-.524 19.582-.133 9.918.394 20.493 1.18 31.715 2.48 17.36 2.09 31.067 8.094 41.246 18.012 12.793 12.274 19.188 29.633 19.188 52.344" style="fill:#fff;fill-opacity:1;fill-rule:nonzero;stroke:none" transform="matrix(.125 0 0 -.125 0 137.5)"/>
</svg>
