<?xml version="1.0" encoding="UTF-8" standalone="no"?>
<svg
   viewBox="0 0 137.5 137.5"
   height="137.5"
   width="137.5"
   xml:space="preserve"
   version="1.1"
   id="svg2"
   sodipodi:docname="u4.svg"
   inkscape:version="1.2.2 (b0a8486541, 2022-12-01)"
   xmlns:inkscape="http://www.inkscape.org/namespaces/inkscape"
   xmlns:sodipodi="http://sodipodi.sourceforge.net/DTD/sodipodi-0.dtd"
   xmlns="http://www.w3.org/2000/svg"
   xmlns:svg="http://www.w3.org/2000/svg"
   xmlns:rdf="http://www.w3.org/1999/02/22-rdf-syntax-ns#"
   xmlns:cc="http://creativecommons.org/ns#"
   xmlns:dc="http://purl.org/dc/elements/1.1/"><sodipodi:namedview
     id="namedview11"
     pagecolor="#ffffff"
     bordercolor="#666666"
     borderopacity="1.0"
     inkscape:showpageshadow="2"
     inkscape:pageopacity="0.0"
     inkscape:pagecheckerboard="0"
     inkscape:deskcolor="#d1d1d1"
     showgrid="false"
     inkscape:zoom="5.6568543"
     inkscape:cx="45.166446"
     inkscape:cy="104.82858"
     inkscape:window-width="2560"
     inkscape:window-height="1440"
     inkscape:window-x="0"
     inkscape:window-y="0"
     inkscape:window-maximized="1"
     inkscape:current-layer="svg2" /><metadata
     id="metadata8"><rdf:RDF><cc:Work
         rdf:about=""><dc:format>image/svg+xml</dc:format><dc:type
           rdf:resource="http://purl.org/dc/dcmitype/StillImage" /><dc:title /></cc:Work></rdf:RDF></metadata><defs
     id="defs6" /><path
     id="path14"
     style="fill:#009540;fill-opacity:1;fill-rule:evenodd;stroke:none;stroke-width:0.126087"
     d="M 0.14306625,137.49838 H 137.49654 V 0.00349046 H 0.14306625 Z" /><path
     id="path16"
     style="fill:#ffffff;fill-opacity:1;fill-rule:evenodd;stroke:none"
     d="m 140.629,823.938 -0.848,-381.407 c 0,-56.226 13.629,-88.168 38.969,-117.554 30.027,-34.504 80.711,-62.825 171.219,-62.825 139.699,0 207.207,73.684 207.207,183.141 l 0,0.008 -0.426,378.637 -106.48,0 0,-362.032 c 0,-44.5 -6.387,-58.777 -16.61,-74.109 -15.117,-23 -42.379,-40.035 -83.902,-40.035 -67.082,0 -103.5,39.398 -103.5,105.414 l 0.851,371.183 -106.48,-0.421"
     transform="matrix(0.125,0,0,-0.125,0,137.5)" /><path
     d="m 977.47229,-484.66397 h -56.832 v -334.848 h -126.72 l -198.912,333.312 v 90.624 h 218.112 v 120.576 h 107.52 v -120.576 h 56.832 z m -164.352,0 h -142.08 l 142.08,-232.704 z"
     style="font-style:normal;font-variant:normal;font-weight:bold;font-stretch:normal;font-size:768px;line-height:200px;font-family:'Nimbus Sans';-inkscape-font-specification:'Nimbus Sans, Bold';font-variant-ligatures:normal;font-variant-caps:normal;font-variant-numeric:normal;font-feature-settings:normal;text-align:start;letter-spacing:0px;word-spacing:0px;writing-mode:lr-tb;text-anchor:start;fill:#ffffff;fill-opacity:1;stroke:none;stroke-width:8px;stroke-linecap:butt;stroke-linejoin:miter;stroke-opacity:1"
     id="path817"
     transform="matrix(0.125,0,0,0.125,0,137.5)" /></svg>
