<svg xmlns="http://www.w3.org/2000/svg" xml:space="preserve" width="137.5" height="137.5">
  <path d="M.14306625 137.49838H137.49654V.00349046H.14306625Z" style="fill:#009540;fill-opacity:1;fill-rule:evenodd;stroke:none;stroke-width:.126087"/>
  <path d="m140.629 823.938-.848-381.407c0-56.226 13.629-88.168 38.969-117.554 30.027-34.504 80.711-62.825 171.219-62.825 139.699 0 207.207 73.684 207.207 183.141v.008l-.426 378.637H450.27V461.906c0-44.5-6.387-58.777-16.61-74.109-15.117-23-42.379-40.035-83.902-40.035-67.082 0-103.5 39.398-103.5 105.414l.851 371.183-106.48-.421" style="fill:#fff;fill-opacity:1;fill-rule:evenodd;stroke:none" transform="matrix(.125 0 0 -.125 0 137.5)"/>
  <path d="M977.47229-484.66397h-56.832v-334.848h-126.72l-198.912 333.312v90.624h218.112v120.576h107.52v-120.576h56.832zm-164.352 0h-142.08l142.08-232.704z" style="font-style:normal;font-variant:normal;font-weight:700;font-stretch:normal;font-size:768px;line-height:200px;font-family:&quot;Nimbus Sans&quot;;-inkscape-font-specification:&quot;Nimbus Sans, Bold&quot;;font-variant-ligatures:normal;font-variant-caps:normal;font-variant-numeric:normal;font-feature-settings:normal;text-align:start;letter-spacing:0;word-spacing:0;writing-mode:lr-tb;text-anchor:start;fill:#fff;fill-opacity:1;stroke:none;stroke-width:8px;stroke-linecap:butt;stroke-linejoin:miter;stroke-opacity:1" transform="matrix(.125 0 0 .125 0 137.5)"/>
</svg>
