<?xml version="1.0" encoding="UTF-8" standalone="no"?>
<svg
   xmlns:dc="http://purl.org/dc/elements/1.1/"
   xmlns:cc="http://creativecommons.org/ns#"
   xmlns:rdf="http://www.w3.org/1999/02/22-rdf-syntax-ns#"
   xmlns:svg="http://www.w3.org/2000/svg"
   xmlns="http://www.w3.org/2000/svg"
   viewBox="0 0 137.5 137.5"
   height="137.5"
   width="137.5"
   xml:space="preserve"
   version="1.1"
   id="svg2"><metadata
     id="metadata8"><rdf:RDF><cc:Work
         rdf:about=""><dc:format>image/svg+xml</dc:format><dc:type
           rdf:resource="http://purl.org/dc/dcmitype/StillImage" /><dc:title></dc:title></cc:Work></rdf:RDF></metadata><defs
     id="defs6" /><g
     transform="matrix(1.25,0,0,-1.25,0,137.5)"
     id="g10"><g
       transform="scale(0.1,0.1)"
       id="g12"><path
   id="path14"
   style="fill:#009540;fill-opacity:1;fill-rule:evenodd;stroke:none"
   d="m 1.14453,5.75 1089.91997,0 0,1089.92 -1089.91997,0 0,-1089.92 z" /><path
   id="path16"
   style="fill:#ffffff;fill-opacity:1;fill-rule:evenodd;stroke:none"
   d="m 140.629,823.938 -0.848,-381.407 c 0,-56.226 13.629,-88.168 38.969,-117.554 30.027,-34.504 80.711,-62.825 171.219,-62.825 139.699,0 207.207,73.684 207.207,183.141 l 0,0.008 -0.426,378.637 -106.48,0 0,-362.032 c 0,-44.5 -6.387,-58.777 -16.61,-74.109 -15.117,-23 -42.379,-40.035 -83.902,-40.035 -67.082,0 -103.5,39.398 -103.5,105.414 l 0.851,371.183 -106.48,-0.421" /><g
   aria-label="4"
   transform="scale(1,-1)"
   style="font-style:normal;font-variant:normal;font-weight:bold;font-stretch:normal;font-size:768px;line-height:200px;font-family:'Nimbus Sans';-inkscape-font-specification:'Nimbus Sans, Bold';font-variant-ligatures:normal;font-variant-caps:normal;font-variant-numeric:normal;font-feature-settings:normal;text-align:start;letter-spacing:0px;word-spacing:0px;writing-mode:lr-tb;text-anchor:start;fill:#ffffff;fill-opacity:1;stroke:none;stroke-width:8px;stroke-linecap:butt;stroke-linejoin:miter;stroke-opacity:1"
   id="text4526"><path
     d="m 977.47229,-484.66397 h -56.832 v -334.848 h -126.72 l -198.912,333.312 v 90.624 h 218.112 v 120.576 h 107.52 v -120.576 h 56.832 z m -164.352,0 h -142.08 l 142.08,-232.704 z"
     style=""
     id="path817" /></g>
</g></g></svg>