<?xml version="1.0" encoding="UTF-8"?>
<svg width="300" height="300" version="1.1" viewBox="0 0 300 300" xml:space="preserve" xmlns="http://www.w3.org/2000/svg">
  <path d="m0 300h300v-300h-300z" fill="#009540" fill-rule="evenodd"/>
  <path d="m38.082 75.285-0.23152 104.02c0 15.335 3.721 24.047 10.639 32.061 8.1979 9.4105 22.036 17.135 46.746 17.135 38.14 0 56.571-20.096 56.571-49.949v-2e-3l-0.1163-103.27h-29.071v98.74c0 12.137-1.7438 16.031-4.5348 20.212-4.1272 6.273-11.57 10.919-22.907 10.919-18.315 0-28.257-10.745-28.257-28.75l0.23234-101.24-29.071 0.11481" fill="#fff" fill-rule="evenodd"/>
  <path d="m266.56 167.82h-15.516v-91.326h-34.597l-54.307 90.907v24.717h59.549v32.886h29.355v-32.886h15.516zm-44.871 0h-38.79l38.79-63.467z" fill="#fff" style="font-feature-settings:normal;font-variant-caps:normal;font-variant-ligatures:normal;font-variant-numeric:normal"/>
</svg>
