<?xml version="1.0" encoding="UTF-8"?>
<svg width="300" height="300" version="1.1" viewBox="0 0 300 300" xml:space="preserve" xmlns="http://www.w3.org/2000/svg">
  <path d="m300 300h-300v-300h300z" clip-rule="evenodd" fill="#008e95" fill-rule="evenodd" stroke-width="1.0581"/>
  <path d="m34.351 73.569-0.23686 105.03c0 15.484 3.7486 24.278 10.717 32.371 8.2617 9.4983 22.2 17.296 47.09 17.296 38.416 0 56.985-20.286 56.985-50.432l-0.11738-104.26h-29.284v99.692c0 12.251-1.7564 16.183-4.5649 20.404-4.1578 6.3358-11.656 11.026-23.075 11.026-18.451 0-28.463-10.848-28.463-29.027l0.23158-102.21z" clip-rule="evenodd" fill="#fff" fill-rule="evenodd" stroke-width="1.0581"/>
  <path d="m257.69 98.772h-60.412l-5.8518 34.517 0.41874 0.43622c7.9413-8.466 17.142-11.725 28.637-11.725 28.843 0 45.146 23.234 45.146 51.669 0 31.257-24.87 55.358-54.342 54.708-28.429 0-53.929-16.281-54.348-48.196h29.679c1.4666 13.456 11.08 22.792 24.04 22.792 15.47 0 25.294-14.111 25.294-29.306 0-15.85-9.41-28.435-25.294-28.435-10.662 0-16.512 3.9048-22.369 12.155h-26.755l14.425-84.014h81.731v25.398z" fill="#fff" stroke-width="1.0581"/>
</svg>
