<svg xmlns="http://www.w3.org/2000/svg" xml:space="preserve" width="283.46" height="283.46">
  <path fill="#008e95" fill-rule="evenodd" d="M283.45325133 283.34700068H-.25399999V.00264338h283.70725132z" clip-rule="evenodd"/>
  <path fill="#FFF" fill-rule="evenodd" d="m32.231 69.487-.224 99.196c0 14.624 3.545 22.93 10.135 30.574 7.813 8.971 20.994 16.336 44.533 16.336 36.33 0 53.89-19.16 53.89-47.632l-.111-98.475H112.76v94.157c0 11.571-1.661 15.285-4.317 19.271-3.932 5.984-11.023 10.414-21.822 10.414-17.449 0-26.917-10.246-26.917-27.415l.219-96.539-27.692.113z" clip-rule="evenodd"/>
  <path fill="#FFF" d="M243.439 93.291h-57.131l-5.534 32.601.396.412c7.51-7.996 16.211-11.074 27.082-11.074 27.277 0 42.694 21.944 42.694 48.8 0 29.522-23.519 52.285-51.391 51.671-26.885 0-51-15.377-51.396-45.52h28.067c1.387 12.709 10.478 21.527 22.734 21.527 14.63 0 23.92-13.328 23.92-27.679 0-14.97-8.899-26.856-23.92-26.856-10.083 0-15.615 3.688-21.154 11.48h-25.302l13.642-79.35h77.292v23.988z"/>
</svg>
