<?xml version="1.0" encoding="UTF-8" standalone="no"?>
<svg
   xml:space="preserve"
   width="300"
   height="300"
   version="1.1"
   id="svg47"
   sodipodi:docname="u5.svg"
   viewBox="0 0 300 300"
   inkscape:version="1.2.2 (b0a8486541, 2022-12-01)"
   xmlns:inkscape="http://www.inkscape.org/namespaces/inkscape"
   xmlns:sodipodi="http://sodipodi.sourceforge.net/DTD/sodipodi-0.dtd"
   xmlns="http://www.w3.org/2000/svg"
   xmlns:svg="http://www.w3.org/2000/svg"><defs
   id="defs51" /><sodipodi:namedview
   id="namedview49"
   pagecolor="#ffffff"
   bordercolor="#666666"
   borderopacity="1.0"
   inkscape:showpageshadow="2"
   inkscape:pageopacity="0.0"
   inkscape:pagecheckerboard="0"
   inkscape:deskcolor="#d1d1d1"
   showgrid="false"
   inkscape:zoom="1.665138"
   inkscape:cx="153.14046"
   inkscape:cy="134.22311"
   inkscape:window-width="846"
   inkscape:window-height="1367"
   inkscape:window-x="0"
   inkscape:window-y="37"
   inkscape:window-maximized="1"
   inkscape:current-layer="svg47" />
  <path
   fill="#008e95"
   fill-rule="evenodd"
   d="M 300,300 H 0 V 0 h 300 z"
   clip-rule="evenodd"
   id="path41"
   style="stroke-width:1.0581"
   inkscape:label="bg" />
  <path
   fill="#ffffff"
   fill-rule="evenodd"
   d="m 34.35055,73.56881 -0.236864,105.02698 c 0,15.48363 3.748582,24.27787 10.717033,32.37121 8.261685,9.49833 22.199644,17.29626 47.090443,17.29626 38.416358,0 56.984798,-20.28626 56.984798,-50.43192 L 148.78858,73.567751 h -29.28441 v 99.691769 c 0,12.25117 -1.75639,16.18349 -4.56491,20.4038 -4.15781,6.33575 -11.65603,11.02616 -23.075199,11.02616 -18.451062,0 -28.462791,-10.84829 -28.462791,-29.02652 L 63.632847,73.449167 Z"
   clip-rule="evenodd"
   id="path43"
   style="stroke-width:1.0581"
   inkscape:label="u" />
  <path
   fill="#ffffff"
   d="m 257.68781,98.772065 h -60.41192 l -5.85181,34.517365 0.41874,0.43622 c 7.94129,-8.46602 17.14197,-11.72496 28.63727,-11.72496 28.84346,0 45.14583,23.23392 45.14583,51.66858 0,31.25737 -24.86965,55.35844 -54.34228,54.70834 -28.42895,0 -53.92883,-16.28089 -54.34757,-48.19577 h 29.67883 c 1.46665,13.45607 11.07973,22.79241 24.03957,22.79241 15.47017,0 25.29368,-14.11145 25.29368,-29.30604 0,-15.84997 -9.41005,-28.43466 -25.29368,-28.43466 -10.66205,0 -16.51174,3.90479 -22.36883,12.15483 h -26.75505 l 14.42544,-84.014386 h 81.73072 v 25.398071 z"
   id="path45"
   style="stroke-width:1.0581"
   inkscape:label="5" />
</svg>
