<?xml version="1.0" encoding="UTF-8" standalone="no"?>
<!-- Generator: Adobe Illustrator 16.0.3, SVG Export Plug-In . SVG Version: 6.00 Build 0)  -->

<svg
   version="1.1"
   id="Ebene_1"
   x="0px"
   y="0px"
   width="283.46px"
   height="283.46px"
   viewBox="0 0 283.46 283.46"
   enable-background="new 0 0 283.46 283.46"
   xml:space="preserve"
   sodipodi:docname="u5.svg"
   inkscape:version="1.2.2 (b0a8486541, 2022-12-01)"
   xmlns:inkscape="http://www.inkscape.org/namespaces/inkscape"
   xmlns:sodipodi="http://sodipodi.sourceforge.net/DTD/sodipodi-0.dtd"
   xmlns="http://www.w3.org/2000/svg"
   xmlns:svg="http://www.w3.org/2000/svg"><defs
   id="defs15" /><sodipodi:namedview
   id="namedview13"
   pagecolor="#ffffff"
   bordercolor="#666666"
   borderopacity="1.0"
   inkscape:showpageshadow="2"
   inkscape:pageopacity="0.0"
   inkscape:pagecheckerboard="0"
   inkscape:deskcolor="#d1d1d1"
   showgrid="false"
   inkscape:zoom="256"
   inkscape:cx="140.50195"
   inkscape:cy="0.109375"
   inkscape:window-width="2560"
   inkscape:window-height="1440"
   inkscape:window-x="0"
   inkscape:window-y="0"
   inkscape:window-maximized="1"
   inkscape:current-layer="Ebene_1" />

<polygon
   fill-rule="evenodd"
   clip-rule="evenodd"
   fill="#008e95"
   points="283.208,283.347 -0.254,283.347 -0.254,-0.118 283.208,-0.118 "
   id="polygon2"
   transform="matrix(1.0008652,0,0,0.9995744,2.1977135e-4,0.12059316)" /><path
   fill-rule="evenodd"
   clip-rule="evenodd"
   fill="#FFFFFF"
   d="M32.231,69.487l-0.224,99.196    c0,14.624,3.545,22.93,10.135,30.574c7.813,8.971,20.994,16.336,44.533,16.336c36.33,0,53.89-19.16,53.89-47.632l0,0    l-0.111-98.475H112.76v94.157c0,11.571-1.661,15.285-4.317,19.271c-3.932,5.984-11.023,10.414-21.822,10.414    c-17.449,0-26.917-10.246-26.917-27.415l0.219-96.539L32.231,69.487L32.231,69.487L32.231,69.487z"
   id="path4" /><path
   fill="#FFFFFF"
   d="M243.439,93.291h-57.131l-5.534,32.601l0.396,0.412c7.51-7.996,16.211-11.074,27.082-11.074    c27.277,0,42.694,21.944,42.694,48.8c0,29.522-23.519,52.285-51.391,51.671c-26.885,0-51-15.377-51.396-45.52h28.067    c1.387,12.709,10.478,21.527,22.734,21.527c14.63,0,23.92-13.328,23.92-27.679c0-14.97-8.899-26.856-23.92-26.856    c-10.083,0-15.615,3.688-21.154,11.48h-25.302l13.642-79.35h77.292V93.291z"
   id="path6" /></svg>
