<?xml version="1.0" encoding="UTF-8"?>
<svg width="300" height="300" version="1.1" viewBox="0 0 300 300" xml:space="preserve" xmlns="http://www.w3.org/2000/svg">
  <path d="m0 0h300v300h-300z" clip-rule="evenodd" fill="#9d6930" fill-rule="evenodd" stroke-width="1.0584"/>
  <path d="m38.152 75.238-0.23389 104.99c0 15.478 3.7507 24.269 10.726 32.359 8.2655 9.4948 22.216 17.29 47.128 17.29 38.451 0 57.032-20.279 57.032-50.413l-0.11536-104.23h-29.309v99.655c0 12.247-1.7579 16.176-4.5709 20.396-4.1624 6.3334-11.665 11.022-23.095 11.022-18.463 0-28.488-10.844-28.488-29.017l0.23495-102.17z" clip-rule="evenodd" fill="#fff" fill-rule="evenodd" stroke-width="1.0584"/>
  <path d="m219.69 73.834c12.715 0 23.132 3.6641 31.287 11.066 8.1236 7.3653 12.467 17.028 13.042 29.03h-29.783c0.0699-4.7796-1.3271-8.5877-4.1666-11.461-2.8384-2.8746-6.6441-4.3118-11.423-4.3118h-1.2573c-9.0539-0.07303-15.735 4.2759-20.009 13.041-3.3443 6.7916-5.3932 16.707-6.1076 29.749 8.1543-8.5517 17.961-12.828 29.491-12.828 13.617 0 24.757 4.6706 33.411 14.048 8.6613 9.3773 13.005 21.379 13.005 36.036 0 15.596-4.9191 28.349-14.8 38.23-9.8434 9.8768-22.487 14.839-37.939 14.839-17.283 0-30.358-6.4667-39.303-19.402-8.946-12.974-13.434-31.87-13.434-56.799 0-27.416 4.9572-48.039 14.838-61.871 9.1936-12.969 22.525-19.472 40.018-19.472zm-27.879 105.13c0 8.0808 2.1558 14.762 6.4663 20.081 4.3116 5.3554 9.6984 8.0109 16.165 8.0109 7.3648 0 12.967-2.3708 16.848-7.1462 3.8438-4.7796 5.7848-11.752 5.7848-20.945 0-8.0151-2.0859-14.446-6.2144-19.294-4.1338-4.8876-9.6286-7.3314-16.419-7.3314-6.7891 0-12.288 2.4438-16.418 7.3632-4.1327 4.8537-6.2134 11.247-6.2134 19.263z" fill="#fff" stroke-width="1.0584"/>
</svg>
