<?xml version="1.0" encoding="UTF-8" standalone="no"?>
<svg
   xml:space="preserve"
   width="300"
   height="300"
   version="1.1"
   id="svg59"
   sodipodi:docname="u6.svg"
   viewBox="0 0 300 300"
   inkscape:version="1.2.2 (b0a8486541, 2022-12-01)"
   xmlns:inkscape="http://www.inkscape.org/namespaces/inkscape"
   xmlns:sodipodi="http://sodipodi.sourceforge.net/DTD/sodipodi-0.dtd"
   xmlns="http://www.w3.org/2000/svg"
   xmlns:svg="http://www.w3.org/2000/svg"><defs
   id="defs63" /><sodipodi:namedview
   id="namedview61"
   pagecolor="#ffffff"
   bordercolor="#666666"
   borderopacity="1.0"
   inkscape:showpageshadow="2"
   inkscape:pageopacity="0.0"
   inkscape:pagecheckerboard="0"
   inkscape:deskcolor="#d1d1d1"
   showgrid="false"
   inkscape:zoom="0.83256899"
   inkscape:cx="142.9311"
   inkscape:cy="144.1322"
   inkscape:window-width="2560"
   inkscape:window-height="1440"
   inkscape:window-x="0"
   inkscape:window-y="0"
   inkscape:window-maximized="1"
   inkscape:current-layer="svg59" />
  <path
   fill="#9d6930"
   fill-rule="evenodd"
   d="M 0,0 H 300 V 300 H 0 Z"
   clip-rule="evenodd"
   id="path53"
   style="stroke-width:1.05835"
   inkscape:label="bg" />
  <path
   fill="#ffffff"
   fill-rule="evenodd"
   d="M 38.152068,75.237767 37.918179,180.22608 c 0,15.47778 3.750679,24.2687 10.726053,32.35897 8.265463,9.49475 22.216211,17.28973 47.127958,17.28973 38.45081,0 57.0317,-20.2786 57.0317,-50.41285 L 152.68853,75.236708 h -29.30906 v 99.655132 c 0,12.24653 -1.75786,16.17631 -4.57087,20.39607 -4.16237,6.33336 -11.66478,11.02199 -23.094618,11.02199 -18.463415,0 -28.487803,-10.84418 -28.487803,-29.0166 L 67.461126,75.119228 Z"
   clip-rule="evenodd"
   id="path55"
   style="stroke-width:1.05835"
   inkscape:label="u" />
  <path
   fill="#ffffff"
   d="m 219.69064,73.834352 c 12.71463,0 23.13166,3.664119 31.28705,11.066442 8.12365,7.365281 12.46699,17.028306 13.04166,29.030356 h -29.78319 c 0.0699,-4.77965 -1.32713,-8.58771 -4.1666,-11.46122 -2.8384,-2.87456 -6.64412,-4.311843 -11.42348,-4.311843 h -1.25728 c -9.05391,-0.07303 -15.73507,4.275863 -20.00856,13.041383 -3.34429,6.79163 -5.39319,16.70655 -6.10755,29.749 8.15434,-8.55173 17.96071,-12.82759 29.49108,-12.82759 13.61738,0 24.75724,4.67064 33.4111,14.0479 8.66128,9.37727 13.00461,21.37932 13.00461,36.03579 0,15.59632 -4.91906,28.34876 -14.79951,38.22982 -9.84342,9.87682 -22.48714,14.83851 -37.93859,14.83851 -17.28339,0 -30.35785,-6.46671 -39.30275,-19.40226 -8.94596,-12.97364 -13.43429,-31.87 -13.43429,-56.79912 0,-27.41633 4.95716,-48.0389 14.83762,-61.870894 9.19361,-12.969413 22.52524,-19.472112 40.01818,-19.472112 z M 191.81137,178.96237 c 0,8.08075 2.15579,14.76231 6.46632,20.08068 4.31159,5.35542 9.69843,8.0109 16.16475,8.0109 7.36484,0 12.96651,-2.37078 16.84842,-7.1462 3.84381,-4.77965 5.78477,-11.75227 5.78477,-20.94538 0,-8.01512 -2.08594,-14.44585 -6.21444,-19.2943 -4.13379,-4.88761 -9.62858,-7.33141 -16.41875,-7.33141 -6.78911,0 -12.28813,2.4438 -16.41769,7.36316 -4.13273,4.85374 -6.21338,11.24743 -6.21338,19.26255 z"
   id="path57"
   style="stroke-width:1.05835"
   inkscape:label="6" />
</svg>
