<svg xmlns="http://www.w3.org/2000/svg" xml:space="preserve" width="283.46" height="283.46">
  <path fill="#9d6930" fill-rule="evenodd" d="M-.00772054.00246512h283.46868505v283.45153825H-.00772054z" clip-rule="evenodd"/>
  <path fill="#FFF" fill-rule="evenodd" d="m36.042 71.09-.221 99.197c0 14.624 3.544 22.93 10.135 30.574 7.81 8.971 20.992 16.336 44.531 16.336 36.332 0 53.889-19.16 53.889-47.632l-.109-98.476h-27.694v94.158c0 11.571-1.661 15.284-4.319 19.271-3.933 5.984-11.022 10.414-21.822 10.414-17.446 0-26.918-10.246-26.918-27.416l.222-96.538-27.694.112z" clip-rule="evenodd"/>
  <path fill="#FFF" d="M207.577 69.764c12.014 0 21.857 3.462 29.563 10.456 7.676 6.959 11.78 16.089 12.323 27.429h-28.142c.066-4.516-1.254-8.114-3.937-10.829-2.682-2.716-6.278-4.074-10.794-4.074h-1.188c-8.555-.069-14.868 4.04-18.906 12.322-3.16 6.417-5.096 15.785-5.771 28.108 7.705-8.08 16.971-12.12 27.866-12.12 12.867 0 23.393 4.413 31.57 13.273 8.184 8.86 12.288 20.2 12.288 34.048 0 14.736-4.648 26.785-13.984 36.121-9.301 9.332-21.248 14.02-35.848 14.02-16.331 0-28.685-6.11-37.137-18.332-8.453-12.258-12.694-30.112-12.694-53.666 0-25.904 4.684-45.389 14.02-58.458 8.687-12.254 21.284-18.398 37.813-18.398l2.958.1zm-26.343 99.329c0 7.635 2.037 13.948 6.11 18.973 4.074 5.06 9.164 7.569 15.274 7.569 6.959 0 12.252-2.24 15.92-6.752 3.632-4.516 5.466-11.104 5.466-19.79 0-7.573-1.971-13.649-5.872-18.23-3.906-4.618-9.098-6.927-15.514-6.927-6.415 0-11.611 2.309-15.513 6.957-3.905 4.586-5.871 10.627-5.871 18.2z"/>
</svg>
